# xmcd
#
# Track frame offsets:
#	150
#	16213
#	32553
#	45857
#	61937
#	81160
#	92264
#	106144
#	118481
#	133813
#	145510
#	161110
#	179727
#	195337
#	210492
#	233514
#	249553
#	265011
#	283159
#	298923
#	327375
#
# Disc length: 4608 seconds
#
# Revision: 0
# Processed by: cddbd v1.5.2PL0 Copyright (c) Steve Scherf et al.
# Submitted via: EZCDAudioConverter 1.3.4.1
#
DISCID=2711fe15
DTITLE=Various Artist - Angola Soundtrack 2
DYEAR=1900
DGENRE=
TTITLE0=Os Anjos - Avante Juventude
TTITLE1=Quim Manuel O Espirito Santo - Senhor Doutor
TTITLE2=Tony Von - N' Hoca
TTITLE3=Urbano De Castro - Kia Lomingo
TTITLE4=Jovens Do Prenda - Bina
TTITLE5=Oscar Neves - Mabelé
TTITLE6=Africa Ritmos - Agarrem
TTITLE7=Os Kiezos - Saudades De Luanda
TTITLE8=Kito - Bongololo
TTITLE9=Muhongo - N' Ga Kunu M' Butu
TTITLE10=Negoleiros Do Ritmo - Lemba
TTITLE11=Dicanzas Do Prenda - Snipes
TTITLE12=Carlos Lamartine E Águias Reias - Bazooka
TTITLE13=Cisco - Divua Diami
TTITLE14=Levis Vercky's - Meca
TTITLE15=Elias Diá Kimuezo - Chamavo
TTITLE16=Africa Ritmos - Olha O Pica
TTITLE17=Urbano De Castro - Fatimita
TTITLE18=Africa Show - Inspiraçáo De Nito
TTITLE19=Dimba Diangola - Despedida
TTITLE20=Teta Lando - Fuguei Na Escola (Para Jogar A Bola)
EXTD=
EXTT0=
EXTT1=
EXTT2=
EXTT3=
EXTT4=
EXTT5=
EXTT6=
EXTT7=
EXTT8=
EXTT9=
EXTT10=
EXTT11=
EXTT12=
EXTT13=
EXTT14=
EXTT15=
EXTT16=
EXTT17=
EXTT18=
EXTT19=
EXTT20=
PLAYORDER=
